# xmcd
#
# Track frame offsets: 
#        150
#        18487
#        32075
#        53546
#        69903
#        88567
#        101552
#        120357
#        139726
#        156488
#
# Disc length: 2267 seconds
#
# Revision: 0
# Processed by: cddbd v1.5.2PL0 Copyright (c) Steve Scherf et al.
# Submitted via: ExactAudioCopy v0.99pb4
#
DISCID=7808d90a
DTITLE=Michael Combs - Soldier
DYEAR=2006
DGENRE=Country Gospel
TTITLE0=Soldier
TTITLE1=Hearts On Fire
TTITLE2=Cause Jesus Said So
TTITLE3=He Had Mercy On Me
TTITLE4=I'm Not Lonely Anymore
TTITLE5=Raise The Roof
TTITLE6=When He Touched Me
TTITLE7=God's Army Is Still Marching On
TTITLE8=God At His Best
TTITLE9=One Blessed Man
EXTD=
EXTT0=
EXTT1=
EXTT2=
EXTT3=
EXTT4=
EXTT5=
EXTT6=
EXTT7=
EXTT8=
EXTT9=
PLAYORDER=
